<?xml version="1.0" standalone="no"?>
<!DOCTYPE svg PUBLIC "-//W3C//DTD SVG 20010904//EN"
 "http://www.w3.org/TR/2001/REC-SVG-20010904/DTD/svg10.dtd">
<svg version="1.0" xmlns="http://www.w3.org/2000/svg"
 width="1237.000000pt" height="1237.000000pt" viewBox="0 0 1237.000000 1237.000000"
 preserveAspectRatio="xMidYMid meet">

<g transform="translate(0.000000,1237.000000) scale(0.100000,-0.100000)"
fill="#000000" stroke="none">
<path d="M6145 12328 c-83 -62 -296 -188 -442 -261 -430 -216 -886 -340 -1443
-393 -240 -23 -733 -24 -1015 -1 -242 20 -520 56 -749 98 -88 16 -168 29 -177
29 -13 0 -18 -25 -28 -172 -38 -538 -221 -1017 -559 -1463 -183 -240 -465
-520 -719 -713 -40 -30 -73 -58 -73 -62 0 -4 43 -45 96 -91 284 -249 475 -560
545 -891 42 -195 36 -494 -13 -728 -68 -325 -168 -583 -453 -1175 -208 -431
-303 -703 -374 -1065 -89 -459 -93 -994 -10 -1435 149 -793 507 -1375 1101
-1788 358 -249 790 -425 1653 -676 432 -126 525 -154 742 -227 710 -236 1165
-485 1584 -867 69 -63 136 -128 148 -143 13 -16 39 -47 60 -69 20 -22 68 -78
105 -125 38 -47 72 -85 75 -85 4 0 43 43 86 95 283 344 650 628 1115 864 351
178 686 301 1500 551 658 202 956 309 1237 445 497 239 799 502 1025 890 271
466 451 1012 519 1575 18 151 15 544 -5 694 -60 441 -160 729 -536 1551 -257
561 -338 787 -396 1100 -28 146 -25 442 4 578 72 333 248 625 556 924 87 84
99 99 86 111 -8 7 -53 47 -100 87 -69 61 -220 202 -299 281 -58 58 -175 184
-221 239 -30 36 -63 74 -73 85 -10 11 -58 74 -107 140 -210 287 -342 546 -425
835 -58 201 -76 323 -82 538 l-6 192 -27 0 c-15 0 -50 -4 -78 -10 -104 -19
-403 -60 -587 -80 -379 -40 -849 -51 -1235 -30 -751 42 -1464 283 -1901 642
-26 21 -51 38 -55 37 -5 0 -27 -14 -49 -31z m117 -258 c177 -133 456 -287 618
-340 14 -5 54 -20 90 -33 200 -74 526 -145 825 -179 287 -32 844 -32 1180 0
242 24 468 52 647 81 59 10 110 16 113 13 3 -3 5 -61 5 -130 0 -421 161 -878
449 -1272 162 -222 396 -476 621 -673 63 -55 122 -107 130 -114 12 -11 -2 -30
-102 -130 -247 -250 -373 -445 -454 -703 -57 -180 -69 -457 -29 -673 42 -229
152 -536 338 -937 19 -41 47 -102 62 -135 15 -33 43 -94 62 -135 214 -464 330
-814 380 -1146 25 -166 25 -586 -1 -764 -61 -430 -176 -799 -368 -1179 -118
-233 -216 -378 -353 -520 -258 -266 -561 -447 -1065 -634 -208 -77 -349 -123
-770 -252 -1032 -316 -1493 -522 -1940 -869 -122 -94 -385 -353 -450 -443 -25
-34 -49 -62 -55 -62 -5 0 -35 32 -65 71 -172 223 -474 491 -747 662 -378 236
-775 394 -1593 630 -85 24 -195 56 -245 71 -842 244 -1302 475 -1666 835 -118
117 -167 174 -252 293 -352 492 -525 1166 -487 1898 26 497 126 883 356 1369
196 417 247 528 294 646 235 588 268 1018 109 1422 -86 217 -252 435 -489 640
-19 17 -33 32 -30 35 3 2 41 32 85 67 258 202 499 446 673 681 286 387 457
853 478 1303 3 72 7 136 9 142 2 8 34 6 107 -7 56 -10 141 -25 188 -33 98 -17
273 -39 480 -62 198 -21 719 -30 918 -15 642 49 1191 213 1656 496 44 26 107
67 140 91 34 24 66 43 72 44 6 0 40 -22 76 -50z"/>
<path d="M2832 10994 c-22 -15 -22 -18 -22 -268 0 -270 1 -276 50 -276 50 0
62 27 59 132 l-3 93 84 3 c88 3 120 17 120 52 0 36 -32 50 -117 50 l-81 0 -4
55 c-1 30 -1 60 0 65 2 6 44 10 96 10 98 0 116 7 116 46 0 43 -34 54 -160 54
-88 0 -121 -4 -138 -16z"/>
<path d="M3315 10999 c-49 -14 -93 -65 -111 -127 -12 -42 -15 -84 -12 -171 5
-125 14 -155 65 -203 38 -36 73 -48 144 -48 77 0 130 26 167 83 26 41 27 45
27 197 0 151 -1 156 -27 196 -47 72 -152 103 -253 73z m146 -108 c22 -18 24
-27 27 -136 4 -131 0 -157 -28 -185 -29 -29 -102 -28 -129 2 -28 29 -34 67
-29 188 3 97 4 103 31 126 35 30 94 32 128 5z"/>
<path d="M4168 10999 c-16 -9 -18 -30 -18 -212 1 -190 2 -205 23 -247 31 -62
87 -90 178 -90 57 0 71 4 107 30 72 52 77 69 80 293 3 177 2 201 -14 218 -18
20 -50 24 -74 9 -12 -7 -16 -46 -20 -211 -5 -196 -6 -201 -29 -220 -27 -22
-89 -25 -115 -6 -27 20 -36 80 -36 259 0 155 -1 168 -19 178 -24 12 -41 12
-63 -1z"/>
<path d="M4640 10990 c-19 -19 -20 -33 -20 -263 0 -224 2 -245 18 -260 22 -20
63 -22 80 -5 8 8 12 56 12 152 0 83 4 136 9 131 5 -6 28 -47 51 -93 32 -62 49
-84 68 -89 38 -9 53 5 100 96 24 45 46 80 49 78 2 -3 4 -60 4 -128 -1 -135 8
-159 59 -159 49 0 50 6 50 282 l0 258 -24 11 c-52 24 -67 9 -145 -146 -40 -80
-75 -145 -77 -145 -2 0 -34 60 -70 133 -36 72 -73 140 -82 150 -20 23 -57 22
-82 -3z"/>
<path d="M5545 10999 c-114 -35 -143 -194 -49 -268 14 -11 58 -31 96 -43 85
-27 107 -52 88 -98 -7 -18 -22 -33 -37 -36 -24 -6 -94 -1 -144 11 -30 8 -59
-15 -59 -45 0 -37 56 -63 144 -68 105 -5 159 20 194 88 26 52 28 85 6 139 -17
42 -66 75 -162 106 -52 17 -72 37 -72 73 0 45 71 66 136 41 59 -22 110 20 80
65 -25 39 -146 58 -221 35z"/>
<path d="M6837 10992 c-9 -9 -53 -125 -98 -256 -69 -202 -80 -242 -70 -262 8
-17 19 -24 40 -24 37 0 53 16 71 69 l13 41 84 0 c82 0 84 0 93 -27 18 -51 36
-78 54 -81 28 -6 63 6 70 25 10 24 -151 494 -176 516 -26 22 -61 22 -81 -1z
m70 -250 c12 -42 22 -80 23 -84 0 -5 -24 -8 -54 -8 l-55 0 25 72 c13 39 24 80
24 91 0 35 13 9 37 -71z"/>
<path d="M7166 10988 c-13 -19 -16 -62 -16 -264 0 -221 2 -242 18 -257 22 -20
63 -22 80 -5 8 8 12 46 12 104 0 51 4 95 9 98 5 4 26 -18 47 -46 21 -29 41
-55 44 -58 3 -3 23 -29 44 -57 30 -43 43 -53 67 -53 32 0 66 40 53 62 -4 7
-45 64 -92 125 l-84 113 35 42 c20 24 52 61 72 83 60 66 68 81 55 104 -12 24
-52 37 -73 24 -8 -4 -47 -45 -86 -90 -40 -46 -77 -83 -82 -83 -5 0 -9 36 -9
80 0 68 -3 81 -19 90 -31 16 -59 12 -75 -12z"/>
<path d="M8385 10995 c-51 -18 -91 -62 -105 -117 -7 -25 -10 -95 -8 -173 3
-124 5 -134 31 -173 36 -56 90 -82 167 -82 74 0 127 24 167 77 27 35 28 41 31
176 4 167 0 196 -35 238 -54 63 -158 86 -248 54z m150 -109 c30 -30 38 -73 34
-185 -5 -117 -23 -145 -96 -149 -40 -2 -53 1 -69 19 -17 19 -19 36 -19 161 0
135 1 140 24 159 34 28 96 25 126 -5z"/>
<path d="M8766 10988 c-13 -19 -16 -61 -16 -256 l0 -233 25 -24 c23 -24 30
-25 142 -25 130 0 163 11 163 54 0 37 -20 45 -121 48 l-94 3 -3 215 c-2 188
-4 217 -19 228 -26 19 -60 14 -77 -10z"/>
<path d="M9306 10988 c-20 -32 -166 -465 -166 -493 0 -30 22 -47 57 -43 27 3
43 22 63 81 9 27 11 27 93 27 l84 0 12 -40 c15 -49 35 -70 70 -70 31 0 51 16
51 41 0 18 -126 397 -154 464 -19 46 -31 55 -68 55 -18 0 -33 -8 -42 -22z m92
-307 l11 -31 -55 0 c-29 0 -54 4 -54 8 0 4 9 35 19 68 11 32 23 73 27 89 6 28
8 25 24 -36 9 -37 22 -81 28 -98z"/>
<path d="M3696 10978 c-13 -19 -16 -61 -16 -256 0 -142 4 -241 10 -253 13 -23
62 -26 84 -3 12 12 16 38 16 115 0 98 0 99 24 99 27 0 42 -18 127 -152 43 -69
52 -78 79 -78 20 0 34 8 45 24 19 29 18 32 -54 139 l-45 69 24 19 c14 10 28
19 31 19 3 0 15 17 27 39 44 78 16 183 -60 222 -30 16 -59 19 -157 19 -113 0
-121 -1 -135 -22z m247 -96 c22 -19 22 -60 0 -84 -13 -14 -31 -18 -85 -18
l-68 0 0 59 c0 49 3 60 18 63 34 8 117 -5 135 -20z"/>
<path d="M5896 10978 c-22 -32 -24 -474 -2 -504 13 -17 30 -19 144 -22 80 -3
137 0 150 7 27 14 33 47 14 71 -14 17 -32 20 -112 22 l-95 3 -3 63 -3 62 85 0
c89 0 116 11 116 50 0 39 -27 50 -116 50 l-84 0 0 60 0 60 58 1 c31 1 64 3 72
4 8 1 25 3 37 4 25 1 53 26 53 46 0 7 -7 21 -16 29 -12 13 -41 16 -149 16
-127 0 -135 -1 -149 -22z"/>
<path d="M6296 10978 c-13 -19 -16 -61 -16 -259 0 -216 2 -237 18 -252 25 -23
69 -22 82 2 5 11 10 53 10 94 l0 74 69 5 c83 6 146 38 175 87 30 51 28 148 -5
195 -39 59 -87 76 -212 76 -98 0 -107 -2 -121 -22z m229 -95 c15 -9 20 -22 20
-58 0 -64 -28 -87 -99 -83 l-51 3 -3 69 c-2 38 -1 74 1 80 6 14 103 6 132 -11z"/>
<path d="M7846 10984 c-14 -13 -16 -51 -16 -258 0 -278 -3 -267 85 -274 182
-15 295 48 295 166 0 40 -5 50 -42 86 l-43 41 33 30 c29 26 34 37 34 78 1 54
-19 88 -72 125 -29 20 -45 22 -146 22 -89 0 -116 -3 -128 -16z m232 -102 c18
-23 15 -49 -8 -72 -15 -15 -33 -20 -75 -20 l-55 0 0 54 0 55 43 3 c55 4 79 -1
95 -20z m2 -212 c20 -20 26 -65 12 -87 -12 -18 -59 -33 -108 -33 l-44 0 0 70
0 70 60 0 c47 0 64 -4 80 -20z"/>
<path d="M2895 10212 c-51 -24 -92 -72 -101 -116 -3 -19 -4 -99 -2 -178 3
-141 4 -145 32 -182 16 -21 45 -45 65 -53 79 -33 232 -6 260 45 6 12 11 70 11
131 0 102 -2 111 -22 125 -26 18 -119 22 -149 6 -22 -12 -26 -59 -7 -78 7 -7
25 -12 40 -12 28 0 28 -1 28 -64 0 -70 -5 -76 -66 -76 -45 0 -83 37 -85 82 -1
18 -3 49 -6 68 -7 72 8 181 28 201 23 23 91 25 133 4 40 -21 63 -19 81 9 21
31 10 53 -38 78 -59 29 -151 34 -202 10z"/>
<path d="M3656 10208 c-13 -19 -16 -62 -16 -265 0 -264 2 -273 59 -273 48 0
51 12 51 179 l0 156 29 -45 c15 -25 43 -72 61 -105 88 -160 103 -180 138 -183
62 -6 62 -6 62 277 0 187 -3 260 -12 269 -16 16 -50 15 -74 -2 -17 -13 -20
-31 -24 -165 l-5 -151 -89 155 c-49 86 -97 160 -107 165 -29 16 -57 11 -73
-12z"/>
<path d="M5187 10218 c-18 -14 -177 -464 -177 -502 0 -31 22 -48 57 -44 27 3
43 22 63 81 9 27 11 27 93 27 l84 0 13 -41 c18 -52 34 -69 69 -69 31 0 51 16
51 43 0 10 -21 78 -46 150 -25 73 -59 174 -76 224 -16 51 -39 104 -50 118 -21
27 -54 32 -81 13z m72 -281 c22 -57 16 -67 -40 -67 -39 0 -50 3 -46 13 3 8 15
51 28 97 l22 83 13 -49 c7 -27 17 -62 23 -77z"/>
<path d="M5580 10208 c-61 -31 -95 -97 -85 -163 9 -64 54 -107 142 -135 80
-26 103 -43 103 -80 0 -58 -68 -80 -158 -51 -37 12 -44 12 -67 -3 -39 -26 -30
-56 25 -84 60 -31 193 -29 237 4 49 36 73 82 73 138 0 88 -31 119 -173 171
-60 22 -83 52 -66 89 14 29 45 41 87 33 15 -3 43 -8 63 -12 66 -13 92 47 37
88 -19 14 -47 21 -100 24 -62 4 -80 1 -118 -19z"/>
<path d="M5958 10216 c-16 -12 -18 -37 -18 -268 0 -271 1 -278 50 -278 55 0
55 -1 58 262 2 264 -2 291 -48 295 -14 2 -33 -3 -42 -11z"/>
<path d="M6386 10208 c-13 -19 -16 -62 -16 -265 0 -264 2 -273 59 -273 50 0
51 6 51 275 0 231 -1 253 -18 268 -26 23 -58 21 -76 -5z"/>
<path d="M6586 10208 c-13 -19 -16 -62 -16 -265 0 -264 2 -273 59 -273 47 0
51 12 51 173 0 87 4 146 9 143 5 -4 42 -63 82 -134 101 -178 104 -182 143
-182 17 0 37 5 44 12 9 9 12 83 12 270 l0 258 -25 12 c-18 8 -31 8 -49 0 -31
-14 -39 -59 -34 -209 2 -62 1 -113 -2 -113 -3 0 -43 66 -89 148 -46 81 -91
155 -99 165 -22 24 -67 22 -86 -5z"/>
<path d="M7106 10207 l-26 -26 0 -225 c0 -253 4 -272 57 -282 46 -9 178 4 217
20 44 18 93 78 107 128 17 65 8 255 -15 298 -38 70 -97 98 -228 107 -83 6 -87
5 -112 -20z m227 -117 c26 -29 27 -34 27 -140 0 -106 -1 -111 -28 -141 -24
-27 -37 -33 -85 -37 l-57 -4 0 174 c0 96 3 178 8 182 4 5 30 5 57 2 39 -4 56
-12 78 -36z"/>
<path d="M7644 10209 c-85 -41 -103 -86 -104 -254 0 -136 9 -181 47 -226 36
-42 80 -59 153 -59 71 0 114 16 152 56 37 40 47 71 54 177 11 175 -22 268
-110 308 -56 25 -140 25 -192 -2z m161 -103 c29 -29 38 -85 34 -200 -3 -72 -7
-88 -28 -110 -13 -14 -36 -28 -52 -31 -32 -7 -83 16 -99 44 -5 11 -10 76 -10
146 0 120 1 127 25 150 33 34 96 35 130 1z"/>
<path d="M8047 10212 c-15 -16 -17 -47 -17 -268 0 -267 1 -274 50 -274 52 0
55 8 60 172 l5 153 89 -155 c49 -85 94 -158 100 -162 19 -13 64 -9 80 8 14 13
16 51 16 257 0 263 -5 287 -54 287 -49 0 -56 -24 -56 -184 0 -83 -4 -145 -9
-142 -5 3 -37 58 -72 122 -35 64 -78 135 -94 157 -35 48 -71 59 -98 29z"/>
<path d="M9021 10208 c-65 -34 -86 -67 -86 -138 0 -91 31 -122 168 -171 67
-24 88 -52 69 -94 -19 -40 -56 -49 -133 -30 -75 18 -97 13 -106 -23 -14 -55
74 -90 200 -79 92 8 146 59 155 145 8 87 -32 135 -148 176 -76 27 -100 46
-100 78 0 48 71 72 136 47 35 -13 70 -4 84 20 24 46 -29 82 -130 88 -54 4 -73
0 -109 -19z"/>
<path d="M9386 10208 c-13 -19 -16 -62 -16 -265 0 -264 2 -273 59 -273 50 0
51 6 51 275 0 231 -1 253 -18 268 -26 23 -58 21 -76 -5z"/>
<path d="M9717 10218 c-18 -14 -177 -465 -177 -503 0 -30 22 -47 57 -43 27 3
43 22 63 81 9 27 11 27 94 27 l85 0 11 -40 c14 -52 35 -72 73 -68 60 6 59 19
-27 274 -44 130 -88 247 -99 260 -20 26 -54 31 -80 12z m83 -335 c0 -9 -17
-13 -51 -13 -37 0 -50 4 -46 13 5 15 32 111 42 152 7 27 10 22 31 -55 13 -47
23 -91 24 -97z"/>
<path d="M3256 10198 c-22 -32 -24 -474 -2 -504 13 -17 30 -19 144 -22 80 -3
137 0 150 7 26 14 33 45 15 70 -13 19 -24 21 -114 21 l-99 0 0 65 0 65 81 0
c91 0 119 10 119 45 0 44 -24 55 -116 55 l-85 0 3 60 3 61 93 2 c80 2 96 5
108 21 18 25 18 41 -2 60 -12 13 -41 16 -149 16 -127 0 -135 -1 -149 -22z"/>
<path d="M4166 10198 c-22 -31 -24 -474 -2 -503 12 -17 30 -20 125 -23 61 -3
127 -1 146 2 46 9 62 38 40 72 -15 23 -21 24 -115 24 l-100 0 0 65 0 65 81 0
c91 0 119 10 119 44 0 42 -29 56 -118 56 l-82 0 0 59 0 59 96 4 c80 3 99 7
110 23 18 24 18 40 -2 59 -12 13 -41 16 -149 16 -127 0 -135 -1 -149 -22z"/>
<path d="M4566 10198 c-13 -19 -16 -61 -16 -260 0 -259 2 -268 59 -268 45 0
51 15 51 127 l0 103 28 0 c24 0 35 -14 97 -112 71 -113 85 -125 130 -114 51
13 37 64 -47 180 -15 21 -28 42 -28 47 0 4 15 17 33 28 50 31 71 76 65 143 -5
65 -28 100 -84 128 -33 17 -60 20 -157 20 -108 0 -117 -1 -131 -22z m246 -95
c19 -17 24 -58 10 -81 -11 -17 -67 -32 -119 -32 l-43 0 0 65 0 65 67 0 c48 0
72 -5 85 -17z"/>
<path d="M8556 10204 c-14 -13 -16 -51 -16 -258 0 -214 2 -245 17 -257 26 -22
256 -26 288 -5 30 20 33 61 6 76 -11 5 -60 10 -110 10 l-91 0 0 65 0 65 84 0
c76 0 86 2 100 22 20 29 20 34 -4 58 -17 17 -33 20 -100 20 l-80 0 0 60 0 60
83 0 c91 0 127 15 127 54 0 41 -16 46 -156 46 -107 0 -136 -3 -148 -16z"/>
<path d="M1737 9238 c155 -133 312 -337 393 -511 96 -207 124 -339 124 -590
l1 -187 863 0 c628 0 862 -3 862 -11 0 -6 -17 -50 -39 -98 -192 -426 -248
-929 -160 -1426 34 -188 108 -415 189 -575 16 -32 26 -60 23 -64 -4 -3 -565
-6 -1249 -6 l-1242 0 -11 -62 c-40 -233 -58 -607 -40 -838 14 -185 60 -466 99
-600 37 -132 77 -254 100 -310 33 -78 78 -179 89 -200 68 -126 86 -157 96
-170 7 -8 15 -22 18 -30 4 -8 33 -52 64 -96 168 -236 392 -444 653 -607 41
-25 80 -50 86 -54 6 -4 52 -29 102 -55 l91 -47 58 77 c32 42 60 79 63 82 3 3
34 43 70 90 35 47 67 87 72 88 4 2 8 9 8 15 0 7 12 26 28 42 15 17 34 40 42
51 16 24 407 541 421 558 5 6 55 72 110 146 56 74 105 137 110 138 5 2 9 8 9
13 0 5 9 19 19 31 11 13 55 70 98 128 l79 105 2180 2 c1198 2 2184 -1 2190 -5
5 -4 53 -63 105 -132 52 -69 99 -130 104 -136 6 -6 17 -22 25 -34 8 -12 20
-28 25 -34 6 -6 57 -73 115 -150 186 -245 482 -636 610 -806 69 -91 129 -170
135 -177 5 -6 21 -25 34 -42 13 -17 27 -31 31 -31 14 0 291 160 345 199 177
126 312 254 433 407 17 23 32 46 32 52 0 6 4 12 8 14 32 13 204 353 299 593 8
22 19 49 24 60 20 45 90 278 118 390 67 265 95 497 95 775 -1 199 -18 388 -46
509 l-11 51 -1409 0 c-830 0 -1408 4 -1408 9 0 5 18 47 39 93 86 184 152 400
187 613 25 152 30 519 10 681 -34 266 -108 530 -202 716 -13 26 -24 52 -24 58
0 7 323 10 1013 10 l1013 0 -1 163 c0 248 41 421 151 634 38 72 136 229 153
243 4 3 26 30 51 60 25 30 47 57 50 60 3 3 38 40 79 83 l74 77 -4482 0 -4482
0 38 -32z m1025 -345 c26 -82 50 -158 53 -171 7 -23 7 -23 181 -20 112 2 173
-1 173 -7 -1 -5 -40 -38 -88 -73 -47 -34 -91 -66 -97 -71 -5 -4 -28 -20 -51
-35 l-41 -27 57 -170 c33 -99 52 -169 46 -169 -7 0 -50 28 -96 63 -46 34 -108
79 -136 100 l-53 39 -52 -38 c-29 -21 -92 -66 -139 -101 -48 -35 -89 -63 -93
-63 -13 0 -5 33 44 177 27 81 50 151 50 154 0 6 -97 79 -228 174 -29 20 -50
40 -47 44 4 3 83 6 177 6 l170 0 50 155 c27 85 51 161 53 168 10 30 23 3 67
-135z m1074 60 c14 -49 39 -124 53 -168 l27 -80 172 1 c188 1 204 -5 135 -47
-21 -13 -40 -26 -43 -29 -3 -3 -45 -35 -94 -70 -48 -35 -90 -69 -93 -75 -2 -7
19 -81 47 -166 27 -84 50 -159 50 -166 0 -11 -210 133 -230 156 -3 4 -18 15
-33 24 -33 21 -13 31 -187 -97 -63 -47 -118 -86 -122 -86 -14 0 -9 22 31 142
22 64 42 130 46 147 4 17 11 33 16 37 9 5 -14 24 -186 148 -53 37 -93 71 -90
74 3 3 83 6 177 6 l172 1 41 130 c57 183 65 205 75 205 5 0 21 -39 36 -87z
m4806 -80 l54 -168 172 0 c94 -1 174 -3 177 -7 3 -3 -58 -51 -135 -107 -77
-56 -140 -105 -140 -109 0 -4 23 -74 50 -157 51 -153 57 -179 40 -173 -5 2
-71 47 -145 101 l-135 99 -108 -79 c-155 -114 -172 -126 -179 -119 -3 3 18 79
47 168 l53 162 -29 23 c-16 13 -80 60 -142 104 -62 45 -110 84 -107 88 4 3 83
6 177 6 l170 0 13 35 c8 19 32 95 56 168 23 72 45 132 50 132 4 0 31 -75 61
-167z m1053 2 c26 -82 52 -154 57 -160 5 -6 78 -10 175 -11 93 0 168 -5 169
-10 2 -5 -35 -35 -81 -67 -46 -32 -108 -78 -138 -101 l-55 -43 54 -159 c29
-87 53 -162 54 -166 1 -18 -27 -5 -79 35 -31 23 -66 49 -78 57 -12 8 -49 34
-82 58 l-61 42 -133 -100 c-126 -94 -165 -117 -154 -87 12 32 96 294 99 308 2
11 -20 34 -62 65 -36 26 -87 64 -115 84 -27 21 -63 45 -78 55 -16 10 -24 21
-19 24 6 3 87 6 180 5 l171 -1 51 156 c28 86 53 162 56 170 9 25 20 -1 69
-154z m-3360 130 c755 -106 1408 -612 1698 -1315 110 -268 160 -522 161 -820
0 -245 -25 -421 -91 -640 -173 -573 -572 -1040 -1118 -1310 -202 -100 -378
-157 -600 -196 -125 -21 -435 -30 -576 -15 -850 89 -1568 672 -1833 1489 -44
135 -72 269 -91 430 -62 531 93 1100 419 1532 151 201 397 424 608 552 300
181 592 273 993 312 70 7 326 -4 430 -19z m1635 -4045 l1 -629 -142 -3 c-77
-2 -143 -1 -145 1 -2 2 -4 211 -4 463 l0 460 80 91 c45 51 106 129 138 173 31
45 60 80 64 78 4 -3 7 -288 8 -634z m-3721 449 c33 -43 92 -111 131 -152 l70
-75 0 -428 0 -429 -140 3 -140 3 0 580 c0 324 4 579 9 577 4 -1 36 -37 70 -79z
m3349 -665 l-3 -415 -138 -2 -137 -2 0 306 0 306 113 90 c61 50 121 100 131
112 11 11 23 21 28 21 4 0 7 -187 6 -416z m-3009 318 c31 -27 91 -74 134 -106
l77 -57 0 -284 0 -284 -140 -3 -140 -3 0 393 c0 215 3 392 6 392 4 0 32 -22
63 -48z m2663 -454 l-3 -283 -139 3 -140 3 0 203 0 203 93 48 c50 27 112 61
137 76 25 16 47 29 50 29 3 0 4 -127 2 -282z m-2219 161 l137 -70 0 -184 0
-184 -141 -3 c-77 -2 -143 -1 -145 1 -8 8 -4 511 4 511 4 0 69 -32 145 -71z
m1917 -244 l0 -195 -135 0 c-74 0 -138 0 -142 0 -5 0 -8 66 -8 147 l0 147 105
37 c58 20 116 41 130 47 51 22 50 25 50 -183z m-1674 140 c19 -8 80 -26 134
-41 l100 -27 0 -132 c0 -72 -2 -134 -4 -136 -2 -2 -67 -3 -144 -1 l-140 3 0
175 c0 98 4 174 10 174 5 0 24 -7 44 -15z m1314 -202 l0 -138 -152 2 -153 2 0
113 0 113 30 3 c49 4 220 33 224 38 2 2 15 4 28 4 23 0 23 0 23 -137z m-838
96 l118 -13 0 -108 0 -108 -130 0 c-71 0 -133 0 -137 0 -5 0 -9 57 -11 126
l-3 126 23 -5 c12 -4 76 -12 140 -18z m468 -119 l0 -110 -140 0 -140 0 0 105
0 104 108 4 c59 1 122 4 140 5 l32 2 0 -110z"/>
<path d="M5770 8905 c-108 -15 -256 -47 -314 -67 l-39 -13 -21 -102 c-24 -117
-28 -122 -183 -251 -51 -41 -91 -77 -89 -79 1 -2 38 13 81 33 43 20 111 43
152 51 84 17 91 16 422 -70 l164 -42 29 -45 c16 -25 38 -75 49 -112 12 -38 25
-68 29 -68 5 0 12 15 15 33 11 48 50 128 82 165 31 37 138 78 384 148 l129 37
88 -23 c48 -13 118 -36 156 -51 39 -16 71 -27 73 -26 1 2 -54 41 -123 87 -69
47 -129 91 -134 100 -4 8 -13 56 -19 105 -7 50 -16 93 -19 97 -12 12 -226 66
-332 83 -131 23 -456 28 -580 10z"/>
<path d="M4753 8478 c-416 -328 -679 -780 -769 -1323 -23 -133 -25 -456 -5
-580 85 -530 319 -962 701 -1289 233 -201 496 -343 785 -425 776 -220 1622 36
2137 648 172 203 305 440 389 690 65 193 68 270 4 101 -52 -138 -235 -486
-265 -505 -17 -11 -43 60 -48 132 -3 48 3 113 18 198 12 70 20 129 17 131 -2
3 -19 -21 -37 -53 -65 -114 -115 -169 -186 -203 -93 -43 -305 -115 -421 -141
l-99 -22 -65 43 c-35 24 -77 57 -94 72 -34 32 -61 38 -50 11 25 -56 74 -192
79 -218 5 -25 -3 -45 -52 -120 -61 -95 -191 -265 -247 -326 -27 -28 -55 -43
-127 -67 -51 -17 -119 -33 -150 -37 -67 -8 -78 -25 -17 -25 59 0 238 -30 277
-46 38 -16 172 -107 197 -133 16 -18 13 -20 -52 -40 -248 -76 -615 -103 -896
-66 -101 13 -303 57 -314 69 -3 2 24 23 59 47 35 23 79 55 98 70 37 29 153 62
292 82 43 6 78 14 78 18 0 3 -39 11 -87 18 -206 28 -262 54 -360 169 -96 111
-243 332 -243 363 0 8 16 52 35 99 19 46 33 86 31 87 -2 2 -20 -10 -40 -26
-54 -43 -117 -64 -173 -59 -27 3 -149 33 -273 68 l-225 63 -50 52 c-27 28 -72
91 -100 138 -27 47 -54 86 -59 87 -4 0 -5 -8 -1 -17 17 -44 45 -220 44 -281 0
-55 -7 -82 -37 -149 -20 -46 -41 -84 -47 -85 -17 -4 -102 131 -174 274 -114
228 -185 476 -211 737 -13 129 -13 151 0 151 6 0 51 -27 100 -60 101 -68 113
-84 192 -249 29 -61 56 -111 61 -111 4 0 4 19 0 43 -14 76 -8 248 11 312 31
104 210 408 261 441 21 14 55 19 141 22 l114 5 -48 29 c-64 41 -100 76 -125
123 -19 36 -21 56 -22 220 0 234 17 314 88 424 27 42 64 94 81 116 18 22 36
46 41 54 11 19 2 13 -139 -92 -88 -65 -125 -87 -140 -83 -12 3 -58 11 -103 18
-61 9 -83 16 -83 27 0 29 115 164 257 301 80 77 140 140 135 140 -6 0 -46 -28
-89 -62z"/>
<path d="M7208 8246 c78 -82 128 -167 146 -246 18 -78 36 -298 36 -443 0 -115
1 -113 -129 -190 -44 -27 -81 -52 -81 -56 0 -5 44 -8 98 -8 136 1 168 -11 236
-83 31 -34 64 -73 73 -88 10 -15 20 -29 24 -32 3 -3 31 -48 62 -100 82 -142
99 -198 105 -362 2 -76 8 -135 12 -133 5 3 18 34 30 70 32 96 114 252 151 286
18 17 52 44 76 60 40 28 43 33 43 77 0 26 -7 92 -15 147 -44 309 -151 591
-321 845 -105 157 -88 145 -182 130 l-81 -12 -83 48 c-46 27 -117 70 -158 96
-41 26 -79 48 -84 48 -5 0 14 -24 42 -54z"/>
<path d="M6046 7929 c-2 -8 -11 -47 -20 -87 -29 -133 -46 -160 -142 -222 -124
-79 -249 -174 -413 -315 l-95 -80 -130 -3 c-72 -1 -138 -5 -146 -8 -9 -3 9
-17 50 -37 36 -18 88 -48 117 -67 l51 -35 32 -130 c38 -156 115 -390 165 -499
l36 -80 -16 -80 c-9 -44 -26 -106 -37 -139 -11 -32 -17 -61 -14 -64 3 -4 44
31 91 77 l85 83 48 -7 c228 -32 428 -32 607 -1 163 29 168 29 214 6 23 -12 60
-38 82 -58 22 -20 42 -34 44 -31 3 3 -4 26 -16 52 -12 27 -23 79 -26 119 -5
66 -3 76 26 130 72 132 133 331 170 547 22 127 23 129 134 201 46 30 65 58 30
44 -10 -3 -47 -9 -84 -12 -118 -10 -141 2 -461 241 l-286 215 -31 79 c-17 44
-35 99 -40 122 -10 47 -18 59 -25 39z"/>
<path d="M2237 7213 c-4 -3 -7 -143 -7 -310 l0 -303 205 0 205 0 0 55 0 54
-127 3 -128 3 -3 73 -3 72 90 0 c49 0 92 4 95 9 4 5 9 30 12 55 l7 45 -99 3
-99 3 -3 63 -3 62 121 0 120 0 0 60 0 60 -188 0 c-104 0 -192 -3 -195 -7z"/>
<path d="M2795 7203 c-72 -37 -105 -88 -105 -158 0 -81 44 -135 145 -181 76
-34 105 -60 105 -95 0 -62 -73 -78 -160 -34 -27 14 -53 25 -58 25 -5 0 -19
-22 -30 -49 -23 -57 -24 -56 58 -91 76 -32 188 -33 247 -2 23 12 54 38 70 58
23 31 28 49 31 108 5 97 -15 126 -128 183 -114 59 -140 91 -104 127 21 22 70
20 123 -4 24 -11 47 -20 52 -20 13 0 51 80 45 95 -2 7 -30 22 -61 34 -69 26
-185 28 -230 4z"/>
<path d="M3124 7206 c-3 -7 -4 -33 -2 -57 l3 -44 73 -3 72 -3 0 -249 0 -250
75 0 75 0 0 250 0 250 69 0 c39 0 72 3 74 8 3 4 8 31 12 60 l7 52 -226 0
c-184 0 -228 -3 -232 -14z"/>
<path d="M8725 7184 c-55 -14 -145 -47 -150 -54 -7 -12 37 -100 49 -100 6 1
35 9 65 19 59 21 87 18 102 -11 18 -33 2 -79 -46 -138 -24 -30 -79 -101 -120
-158 -108 -147 -113 -142 141 -142 l204 0 0 60 0 59 -95 3 -95 3 49 55 c84 93
115 153 119 229 4 80 -17 126 -70 153 -37 19 -118 31 -153 22z"/>
<path d="M9215 7181 c-75 -19 -121 -58 -157 -136 -20 -43 -23 -66 -23 -165 0
-95 4 -123 21 -160 40 -87 104 -128 202 -129 94 -2 161 41 210 134 24 45 26
60 27 165 0 103 -3 121 -26 171 -47 100 -145 146 -254 120z m101 -128 c28 -42
33 -263 7 -312 -24 -47 -45 -58 -78 -43 -44 20 -57 69 -53 207 4 144 17 175
72 175 26 0 38 -7 52 -27z"/>
<path d="M9709 7180 c-44 -8 -139 -44 -139 -53 0 -3 9 -25 20 -51 23 -50 30
-53 83 -31 44 18 99 19 115 3 30 -30 3 -99 -72 -186 -24 -29 -72 -90 -106
-137 -92 -128 -95 -125 156 -125 l204 0 0 60 0 59 -95 3 -96 3 62 70 c77 86
109 152 109 223 0 101 -48 155 -145 165 -27 3 -71 2 -96 -3z"/>
<path d="M10180 7184 c-32 -6 -86 -24 -128 -41 l-32 -13 25 -50 c14 -28 30
-50 35 -50 6 0 27 7 47 15 43 18 95 19 111 3 7 -7 12 -29 12 -49 0 -37 -24
-76 -108 -175 -70 -83 -133 -178 -130 -198 3 -20 9 -21 208 -21 l205 0 3 58 3
57 -101 0 -102 0 59 64 c88 96 118 156 118 238 0 74 -18 109 -71 140 -31 18
-112 29 -154 22z"/>
<path d="M4826 3884 c-59 -19 -89 -36 -139 -83 -85 -79 -91 -118 -91 -546 0
-351 1 -361 24 -420 16 -42 38 -76 76 -112 73 -72 154 -97 293 -91 86 3 106 8
164 36 78 39 129 93 154 166 16 46 18 93 18 441 l0 390 -32 61 c-45 86 -99
128 -202 160 -60 18 -202 17 -265 -2z m174 -213 c6 -13 10 -159 10 -406 0
-247 -4 -393 -10 -406 -6 -10 -21 -19 -34 -19 -51 0 -51 4 -51 425 0 421 0
425 51 425 13 0 28 -9 34 -19z"/>
<path d="M6458 3885 c-89 -24 -163 -87 -189 -162 -9 -24 -14 -83 -14 -158 0
-108 3 -125 26 -175 33 -72 62 -99 206 -198 156 -107 174 -127 184 -199 9 -64
-2 -131 -23 -144 -24 -16 -67 -10 -78 10 -5 11 -10 67 -10 125 l0 106 -151 0
-152 0 6 -117 c3 -65 11 -134 16 -154 17 -55 74 -115 147 -150 56 -28 78 -33
163 -37 151 -7 264 28 328 102 48 53 58 96 58 236 0 242 -30 282 -362 494 -40
26 -63 74 -63 134 0 55 21 92 53 92 39 0 45 -13 53 -103 l7 -88 141 3 141 3 3
74 c7 182 -49 264 -213 307 -62 17 -215 16 -277 -1z"/>
<path d="M7283 3880 c-84 -28 -165 -101 -190 -173 -16 -47 -18 -91 -18 -447 0
-390 0 -396 23 -444 33 -73 63 -107 126 -145 45 -27 70 -35 124 -38 90 -7 140
8 190 58 l42 40 10 -28 c6 -15 13 -34 15 -40 3 -9 33 -13 105 -13 l100 0 0
330 0 330 -186 -2 -186 -3 0 -80 c0 -44 0 -86 1 -92 1 -8 14 -13 32 -13 l31 0
-4 -124 c-4 -136 -12 -156 -59 -156 -22 0 -32 6 -39 26 -6 15 -10 183 -10 408
0 418 0 421 55 414 37 -4 43 -23 44 -155 l1 -103 160 0 160 0 0 78 c-1 194
-52 290 -190 356 -58 27 -76 31 -170 33 -83 2 -118 -1 -167 -17z"/>
<path d="M3985 3867 c-3 -7 -4 -282 -3 -612 l3 -600 157 -3 158 -3 2 258 3
258 98 3 97 3 0 114 0 114 -97 3 -98 3 -3 112 -3 112 112 3 112 3 -1 120 -1
120 -266 3 c-210 2 -267 0 -270 -11z"/>
<path d="M5440 3267 l0 -617 160 0 160 0 0 275 0 275 28 0 c59 0 61 -11 64
-291 l3 -254 148 -3 147 -3 0 248 c0 220 -3 253 -19 289 -20 44 -60 78 -104
89 -33 9 -28 20 11 28 87 17 118 97 109 279 -5 125 -26 178 -89 232 -56 48
-105 57 -380 63 l-238 6 0 -616z m394 377 c12 -12 16 -38 16 -114 0 -110 -9
-130 -61 -130 l-29 0 0 130 0 130 29 0 c16 0 37 -7 45 -16z"/>
<path d="M7935 3868 c-3 -7 -4 -283 -3 -613 l3 -600 158 -3 157 -3 0 616 0
615 -155 0 c-115 0 -157 -3 -160 -12z"/>
</g>
</svg>
